<svg xmlns="http://www.w3.org/2000/svg" width="240" height="210" viewBox="0 0 240 210" fill="none">
  <title>CRM floral logo</title>
  <g fill="#73B85C">
    <path d="M118 114C110 94 96 77 82 60C78 55 72 50 68 47C67 51 67 56 69 61C74 75 84 88 95 100C103 109 111 116 118 121V114Z"/>
    <path d="M122 114C130 94 144 77 158 60C162 55 168 50 172 47C173 51 173 56 171 61C166 75 156 88 145 100C137 109 129 116 122 121V114Z"/>

    <ellipse cx="81" cy="51" rx="5.5" ry="12" transform="rotate(-28 81 51)"/>
    <ellipse cx="73" cy="64" rx="5.5" ry="12" transform="rotate(-14 73 64)"/>
    <ellipse cx="70" cy="79" rx="5.5" ry="12" transform="rotate(2 70 79)"/>
    <ellipse cx="73" cy="94" rx="5.5" ry="12" transform="rotate(18 73 94)"/>
    <ellipse cx="82" cy="107" rx="5.5" ry="12" transform="rotate(34 82 107)"/>
    <ellipse cx="93" cy="62" rx="5.5" ry="12" transform="rotate(-42 93 62)"/>
    <ellipse cx="99" cy="77" rx="5.5" ry="12" transform="rotate(-24 99 77)"/>
    <ellipse cx="103" cy="93" rx="5.5" ry="12" transform="rotate(-8 103 93)"/>

    <ellipse cx="159" cy="51" rx="5.5" ry="12" transform="rotate(28 159 51)"/>
    <ellipse cx="167" cy="64" rx="5.5" ry="12" transform="rotate(14 167 64)"/>
    <ellipse cx="170" cy="79" rx="5.5" ry="12" transform="rotate(-2 170 79)"/>
    <ellipse cx="167" cy="94" rx="5.5" ry="12" transform="rotate(-18 167 94)"/>
    <ellipse cx="158" cy="107" rx="5.5" ry="12" transform="rotate(-34 158 107)"/>
    <ellipse cx="147" cy="62" rx="5.5" ry="12" transform="rotate(42 147 62)"/>
    <ellipse cx="141" cy="77" rx="5.5" ry="12" transform="rotate(24 141 77)"/>
    <ellipse cx="137" cy="93" rx="5.5" ry="12" transform="rotate(8 137 93)"/>

    <path d="M120 122C111 120 104 117 98 111C93 107 89 101 88 95C95 97 100 101 104 106C109 111 113 117 120 122Z"/>
    <path d="M120 122C129 120 136 117 142 111C147 107 151 101 152 95C145 97 140 101 136 106C131 111 127 117 120 122Z"/>

    <path d="M117 119C105 118 94 117 82 118C69 119 56 123 43 129" stroke="#73B85C" stroke-width="3.4" stroke-linecap="round"/>
    <path d="M123 119C135 118 146 117 158 118C171 119 184 123 197 129" stroke="#73B85C" stroke-width="3.4" stroke-linecap="round"/>

    <path d="M86 120C78 120 71 118 64 114" stroke="#73B85C" stroke-width="2.6" stroke-linecap="round"/>
    <path d="M75 117C72 123 69 128 66 132" stroke="#73B85C" stroke-width="2.3" stroke-linecap="round"/>
    <path d="M66 114C63 119 60 123 57 127" stroke="#73B85C" stroke-width="2.1" stroke-linecap="round"/>
    <path d="M57 118C54 123 51 126 48 129" stroke="#73B85C" stroke-width="2" stroke-linecap="round"/>

    <path d="M154 120C162 120 169 118 176 114" stroke="#73B85C" stroke-width="2.6" stroke-linecap="round"/>
    <path d="M165 117C168 123 171 128 174 132" stroke="#73B85C" stroke-width="2.3" stroke-linecap="round"/>
    <path d="M174 114C177 119 180 123 183 127" stroke="#73B85C" stroke-width="2.1" stroke-linecap="round"/>
    <path d="M183 118C186 123 189 126 192 129" stroke="#73B85C" stroke-width="2" stroke-linecap="round"/>

    <circle cx="56" cy="126" r="2.5"/>
    <circle cx="49" cy="130" r="2.4"/>
    <circle cx="64" cy="133" r="2.6"/>
    <circle cx="72" cy="129" r="2.5"/>
    <circle cx="184" cy="126" r="2.5"/>
    <circle cx="191" cy="130" r="2.4"/>
    <circle cx="176" cy="133" r="2.6"/>
    <circle cx="168" cy="129" r="2.5"/>
  </g>

  <text x="120" y="106" fill="#73B85C" font-family="Georgia, 'Times New Roman', serif" font-size="29" font-style="italic" text-anchor="middle">C</text>
  <path d="M42 130C69 124 93 123 120 123C147 123 171 124 198 130" stroke="#73B85C" stroke-width="2.8" stroke-linecap="round"/>
  <text x="120" y="180" fill="#73B85C" font-family="Georgia, 'Times New Roman', serif" font-size="35" letter-spacing="1.4" text-anchor="middle">CRM</text>
</svg>
