<svg xmlns="http://www.w3.org/2000/svg" width="128" height="128" viewBox="0 0 128 128" fill="none">
  <title>CRM floral mark</title>
  <g fill="#73B85C" stroke="#73B85C" stroke-linecap="round" stroke-linejoin="round">
    <path d="M63 76C56 62 46 50 37 38C35 35 31 32 29 30C29 34 30 38 32 42C36 51 43 60 50 68C55 73 59 77 63 80V76Z" stroke="none"/>
    <path d="M65 76C72 62 82 50 91 38C93 35 97 32 99 30C99 34 98 38 96 42C92 51 85 60 78 68C73 73 69 77 65 80V76Z" stroke="none"/>

    <ellipse cx="38" cy="34" rx="3.3" ry="7.8" transform="rotate(-28 38 34)" stroke="none"/>
    <ellipse cx="32" cy="43" rx="3.3" ry="7.8" transform="rotate(-12 32 43)" stroke="none"/>
    <ellipse cx="32" cy="53" rx="3.3" ry="7.8" transform="rotate(8 32 53)" stroke="none"/>
    <ellipse cx="39" cy="62" rx="3.3" ry="7.8" transform="rotate(28 39 62)" stroke="none"/>
    <ellipse cx="48" cy="41" rx="3.3" ry="7.8" transform="rotate(-38 48 41)" stroke="none"/>
    <ellipse cx="52" cy="52" rx="3.3" ry="7.8" transform="rotate(-14 52 52)" stroke="none"/>

    <ellipse cx="90" cy="34" rx="3.3" ry="7.8" transform="rotate(28 90 34)" stroke="none"/>
    <ellipse cx="96" cy="43" rx="3.3" ry="7.8" transform="rotate(12 96 43)" stroke="none"/>
    <ellipse cx="96" cy="53" rx="3.3" ry="7.8" transform="rotate(-8 96 53)" stroke="none"/>
    <ellipse cx="89" cy="62" rx="3.3" ry="7.8" transform="rotate(-28 89 62)" stroke="none"/>
    <ellipse cx="80" cy="41" rx="3.3" ry="7.8" transform="rotate(38 80 41)" stroke="none"/>
    <ellipse cx="76" cy="52" rx="3.3" ry="7.8" transform="rotate(14 76 52)" stroke="none"/>

    <path d="M63 79C54 78 45 78 36 79C27 80 19 83 11 88" stroke-width="2.2"/>
    <path d="M65 79C74 78 83 78 92 79C101 80 109 83 117 88" stroke-width="2.2"/>

    <path d="M44 80C38 80 32 79 27 76" stroke-width="1.8"/>
    <path d="M26 78C24 82 22 85 19 88" stroke-width="1.5"/>
    <path d="M84 80C90 80 96 79 101 76" stroke-width="1.8"/>
    <path d="M102 78C104 82 106 85 109 88" stroke-width="1.5"/>

    <circle cx="20" cy="90" r="2.2" stroke="none"/>
    <circle cx="28" cy="87" r="2" stroke="none"/>
    <circle cx="108" cy="90" r="2.2" stroke="none"/>
    <circle cx="100" cy="87" r="2" stroke="none"/>
  </g>
  <path d="M20 88C34 84 48 83 64 83C80 83 94 84 108 88" stroke="#73B85C" stroke-width="2.2" stroke-linecap="round"/>
  <text x="64" y="70" fill="#73B85C" font-family="Georgia, 'Times New Roman', serif" font-size="24" font-style="italic" text-anchor="middle">C</text>
</svg>
